<?xml version="1.0" encoding="utf-8"?>
<!-- Generator: Adobe Illustrator 28.0.0, SVG Export Plug-In . SVG Version: 6.00 Build 0)  -->
<svg version="1.1" id="Layer_1" xmlns="http://www.w3.org/2000/svg" xmlns:xlink="http://www.w3.org/1999/xlink" x="0px" y="0px"
	 viewBox="0 0 69.4 73.7" style="enable-background:new 0 0 69.4 73.7;" xml:space="preserve">
<g>
	<g>
		<path d="M17.3,4.3c0-0.7,0-1.3,0-2C17.4,1,18.3,0,19.5,0c1.3,0,2.2,0.9,2.2,2.3c0,0.6,0,1.3,0,1.9c8.7,0,17.3,0,26,0
			c0-0.7,0-1.3,0-2C47.7,1,48.6,0,49.9,0c1.2,0,2.2,0.9,2.2,2.2c0,0.7,0,1.3,0,2.1c0.4,0,0.7,0,1,0c2.1,0.1,4.2,0,6.2,0.4
			c6,1.3,10.1,6.4,10.1,12.7c0.1,14.4,0.1,28.8,0,43.2c0,6.7-4.6,11.9-11.2,13c-0.7,0.1-1.4,0.1-2,0.1c-14.3,0-28.6,0-42.9,0
			c-6.7,0-11.9-4.4-13.1-11C0,61.9,0,61.1,0,60.3c0-14.2,0-28.4,0-42.6c0-6.8,4.3-12,10.9-13.2c0.8-0.2,1.7-0.2,2.5-0.2
			C14.7,4.3,16,4.3,17.3,4.3z M65.1,26.1c-20.3,0-40.5,0-60.7,0c0,0.3,0,0.5,0,0.8c0,11.1,0,22.3,0,33.4c0,5.3,3.8,9.1,9,9.1
			c14.2,0,28.4,0,42.6,0c0.7,0,1.4-0.1,2.1-0.2c4.2-0.9,6.9-4.4,6.9-8.7c0-11.3,0-22.5,0-33.8C65.1,26.5,65.1,26.3,65.1,26.1z
			 M17.3,8.7c-1.5,0-2.9,0-4.4,0c-3.2,0.1-5.6,1.5-7.3,4.1c-1.8,2.8-1.2,5.8-1.3,8.9c20.3,0,40.5,0,60.7,0c0-1.7,0.1-3.3,0-4.9
			c-0.3-3.8-2.9-7-6.7-7.8c-1.9-0.4-3.9-0.2-5.9-0.3c-0.1,0-0.3,0-0.4,0.1c0,0.6,0,1.2,0,1.8c0,1.5-0.9,2.5-2.2,2.5
			c-1.3,0-2.1-1-2.1-2.5c0-0.6,0-1.2,0-1.8c-8.7,0-17.3,0-26,0c0,0.7,0,1.3,0,2c0,1.3-0.9,2.3-2.1,2.3c-1.2,0-2.2-1-2.2-2.3
			C17.3,10,17.3,9.4,17.3,8.7z"/>
		<path d="M32.4,55.3c1.6-2,3.2-4,4.7-5.9c3.6-4.5,7.3-9.1,10.9-13.6c0.6-0.7,1.3-1.2,2.2-1c1.7,0.3,2.4,2.2,1.3,3.6
			c-1.6,2.1-3.2,4.1-4.9,6.1c-4,5-8.1,10.1-12.1,15.1c-1.2,1.5-2.5,1.6-3.9,0.2c-2.7-2.7-5.5-5.5-8.2-8.2c-0.7-0.7-0.9-1.5-0.6-2.4
			c0.3-0.9,1-1.3,1.9-1.4c0.8-0.1,1.3,0.3,1.9,0.8c2.1,2.1,4.3,4.3,6.4,6.4C32.1,55,32.2,55.1,32.4,55.3z"/>
	</g>
</g>
</svg>
